<svg width="24" height="24" viewBox="0 0 24 24" fill="none" xmlns="http://www.w3.org/2000/svg">
<path d="M12 2.25C14.4744 2.25 16.7272 3.17906 18.4467 4.69973L15.9674 7.17908C14.8887 6.28913 13.5088 5.75 12 5.75C8.54843 5.75 5.75 8.54843 5.75 12C5.75 15.4516 8.54843 18.25 12 18.25C14.7212 18.25 17.0286 16.5081 17.8872 14.0834L18.0052 13.75H17.6515H12.25V10.25H20.75V10.2915H21H21.5981C21.6965 10.8468 21.75 11.4174 21.75 12C21.75 17.3844 17.3844 21.75 12 21.75C6.61557 21.75 2.25 17.3844 2.25 12C2.25 6.61557 6.61557 2.25 12 2.25Z" fill="#FFC107" stroke="#F8F9FB" stroke-width="0.5"/>
<path d="M18.4467 4.69973L15.9673 7.17908C14.8887 6.28913 13.5088 5.75 12 5.75C9.48819 5.75 7.3268 7.23252 6.33387 9.36828L3.47658 7.27281C5.14103 4.2779 8.33233 2.25 12 2.25C14.4744 2.25 16.7272 3.17906 18.4467 4.69973Z" fill="#FF3D00" stroke="#F8F9FB" stroke-width="0.5"/>
<path d="M12 22C14.583 22 16.93 21.0115 18.7045 19.404L15.6095 16.785C14.5718 17.5742 13.3038 18.001 12 18C9.39903 18 7.19053 16.3415 6.35853 14.027L3.09753 16.5395C4.75253 19.778 8.11353 22 12 22Z" fill="#4CAF50"/>
<path d="M21.8055 10.0415H21V10H12V14H17.6515C17.2571 15.1082 16.5467 16.0766 15.608 16.7855L15.6095 16.7845L18.7045 19.4035C18.4855 19.6025 22 17 22 12C22 11.3295 21.931 10.675 21.8055 10.0415Z" fill="#1976D2"/>
</svg>
