<svg width="100" height="284" viewBox="0 0 100 284" fill="none" xmlns="http://www.w3.org/2000/svg">
<path d="M64.4787 199.075C68.006 198.318 71.4806 200.557 72.2394 204.076C73.5756 210.273 74.0756 220.338 74.0977 235.096L74.0971 237.66C74.0927 240.011 74.0778 242.38 74.0507 245.281L73.9134 258.289C73.9007 259.786 73.8965 260.796 73.8958 261.967L73.8956 262.367C73.8956 265.967 70.9708 268.885 67.3628 268.885C63.7548 268.885 60.83 265.967 60.83 262.367L60.8322 260.78C60.8364 259.456 60.8474 258.069 60.8729 255.637L60.9806 245.68C61.0149 242.133 61.0311 239.406 61.0327 236.603L61.0321 235.157C61.0114 221.482 60.5498 211.995 59.4987 206.972L59.466 206.818C58.7071 203.299 60.9514 199.832 64.4787 199.075Z" fill="#EBBAAA"/>
<path d="M33.8682 220.407C34.0918 216.814 37.1922 214.082 40.7932 214.305C44.3943 214.528 47.1323 217.621 46.9088 221.214C46.6906 224.721 46.4443 228.074 46.1526 231.603L45.9884 233.542L45.0912 243.626L45.0143 244.515C44.7285 247.85 44.5463 250.382 44.4266 252.819L44.4113 253.136C44.2306 256.975 44.2163 260.528 44.3859 264.299C44.5477 267.895 41.757 270.941 38.1526 271.103C34.5482 271.264 31.4952 268.48 31.3334 264.884C31.153 260.874 31.1602 257.079 31.3361 253.052L31.36 252.525C31.4854 249.862 31.6752 247.172 31.9737 243.667L32.1503 241.654C32.3492 239.44 32.8828 233.496 33.0692 231.275C33.3814 227.554 33.6407 224.064 33.8682 220.407Z" fill="#EBBAAA"/>
<path d="M47.9778 201.077C61.4194 201.077 72.316 196.124 72.316 190.015C72.316 183.905 61.4194 178.952 47.9778 178.952C34.5364 178.952 23.6398 183.905 23.6398 190.015C23.6398 196.124 34.5364 201.077 47.9778 201.077Z" fill="#9D8A7D"/>
<path d="M21.8161 177.635H50.2655L46.7378 257.458L45.4734 261.242L46.1056 266.078L30.0896 262.924V261.242L28.8252 260.191L29.352 258.193L21.8161 177.635Z" fill="#9D8A7D"/>
<path d="M30.1261 262.409L46.1421 264.827L45.8584 266.698L29.8424 264.28L30.1261 262.409Z" fill="#847266"/>
<path d="M50.5311 179.033H79.0768L76.1356 255.393V258.299L75.2926 260.717L76.1356 264.396L59.8035 266.078V262.399L58.3283 257.214L50.5311 179.033Z" fill="#9D8A7D"/>
<path d="M75.4109 262.522L75.8066 264.588L61.4765 267.321L61.0808 265.256L75.4109 262.522Z" fill="#847266"/>
<path d="M7.46367 282.343C7.42149 277.518 6.07096 275.199 12.7067 273.723C19.3425 272.245 23.4029 266.5 28.5411 262.895C28.5411 262.895 30.1358 262.264 31.6868 263.105C33.0104 263.822 32.8406 267.968 37.5514 267.926C42.2624 267.886 42.8118 267.312 44.3516 266.503C45.0169 264.675 46.4929 264.661 46.4929 264.661C46.4929 264.661 48.5714 268.628 48.6064 272.61C48.6412 276.595 48.6378 283.211 48.6378 283.211L7.46367 282.343Z" fill="#484D51"/>
<path d="M11.6198 273.393C12.9034 272.926 14.2629 272.573 16.8692 271.982L18.1593 273.393C18.1593 273.393 20.2566 273.828 21.9362 274.185C23.6156 274.543 20.6762 277.087 20.6762 277.087C20.6762 277.087 15.8524 277.192 13.2308 277.087C10.6092 276.982 7.78943 276.666 7.78943 276.666C7.46291 276.351 7.17747 276.599 7.78918 275.3C8.51181 273.765 9.79577 274.055 11.6198 273.393Z" fill="#EAF4FB"/>
<path d="M25.4995 273.513C26.8278 272.425 30.3446 269.476 31.2674 268.887C36.8249 270.989 40.9153 279.189 41.0203 279.715C41.1252 280.241 31.5521 281.496 31.2678 280.451C30.6417 278.153 27.2862 275.125 25.5297 273.54L25.4995 273.513Z" fill="#EA503B"/>
<path d="M36.4705 272.442C35.1717 272.909 34.098 272.945 33.4557 272.533C31.7999 271.454 32.656 269.545 33.0235 268.795C32.3291 269.732 31.64 270.674 31.1235 271.681C30.3079 273.256 30.0413 274.934 30.7538 275.941C32.0326 277.758 34.6769 276.664 36.3462 275.76L47.102 268.795L36.4705 272.442Z" fill="#EAF4FB"/>
<path d="M17.6352 271.725C18.8935 271.2 25.2901 265.628 25.7095 265.207C25.9891 265.908 26.8211 267.436 27.9117 267.941C29.2751 268.572 32.169 263.769 32.8404 264.577C33.3647 265.207 34.5182 266.364 34.0987 266.889C33.6793 267.415 26.3389 273.092 25.7099 273.407C25.0806 273.723 22.9834 274.143 22.3541 274.248C21.7251 274.353 18.9985 274.143 18.3693 273.828C17.7401 273.512 16.3769 272.251 17.6352 271.725Z" fill="#D2D8DD"/>
<path d="M26.8489 263.948C27.1387 263.825 27.4738 263.959 27.5974 264.248C27.6466 264.363 27.7114 264.493 27.8 264.654L27.871 264.782C27.9338 264.893 28.1911 265.335 28.2502 265.439C28.6064 266.064 28.8311 266.536 28.9826 267.042C29.1095 267.466 28.7252 267.861 28.3024 267.758L28.2698 267.749L25.8101 267.002L26.3631 268.942C26.4773 269.342 26.1364 269.721 25.7312 269.66L25.6964 269.654L23.0269 269.091L24.0958 270.792C24.3409 271.183 24.0443 271.681 23.5923 271.663L23.5581 271.661L20.7276 271.391L21.8145 272.48C22.0275 272.694 22.0356 273.034 21.8394 273.257L21.8126 273.285C21.5986 273.498 21.258 273.506 21.0344 273.31L21.0059 273.283L18.8037 271.076C18.4351 270.706 18.7177 270.085 19.228 270.105L19.2624 270.108L22.5142 270.418L21.3462 268.558C21.0848 268.142 21.4387 267.619 21.915 267.693L21.9477 267.699L25.0068 268.345L24.4268 266.309C24.3064 265.887 24.6891 265.498 25.1085 265.6L25.1416 265.609L27.4261 266.303L27.415 266.283C27.3827 266.223 27.3488 266.161 27.3132 266.098L27.2312 265.954C27.1449 265.804 26.9366 265.446 26.8774 265.341C26.7323 265.084 26.6292 264.885 26.548 264.695C26.4244 264.406 26.5591 264.072 26.8489 263.948Z" fill="white"/>
<path d="M19.1032 271.41C19.4178 270.989 19.6273 270.779 19.9421 270.674L21.4102 271.936L20.4663 272.777C19.977 272.32 19.313 271.83 19.1032 271.41Z" fill="#EA503B"/>
<path d="M46.8704 265.208C46.1526 266.999 44.1277 267.855 43.1452 268.111C42.1627 268.368 42.1151 267.85 43.8644 270.144C45.148 271.828 46.5937 270.674 48.5706 272.148C48.0962 268.117 47.2845 266.883 46.8704 265.208Z" fill="#EA503B"/>
<path d="M48.853 282.532L48.6374 278.702L15.3731 279.219L7.07894 278.609L6.82555 281.548C6.7382 282.562 7.50026 283.451 8.51761 283.521L15.4149 284L47.9559 283.495C48.4743 283.487 48.882 283.05 48.853 282.532Z" fill="#DBE0E3"/>
<path d="M48.4142 278.455C48.7622 278.428 49.0668 278.687 49.0944 279.034C49.122 279.382 48.8622 279.685 48.5141 279.713L48.2337 279.734C47.2285 279.803 45.6879 279.862 43.318 279.928L33.2545 280.185C32.2454 280.212 31.332 280.237 30.6247 280.257L30.2064 280.27C22.6012 280.499 12.1154 280.201 7.19152 279.712C6.84408 279.677 6.59049 279.368 6.62511 279.022C6.65973 278.675 6.96946 278.422 7.31689 278.457L7.61551 278.485C12.498 278.943 22.3536 279.22 29.7118 279.022L32.2443 278.95L42.8568 278.679L44.5703 278.629C46.4092 278.572 47.623 278.518 48.4142 278.455Z" fill="#F7FBFF"/>
<path d="M99.1583 282.133C99.2005 277.308 100.551 274.988 93.9152 273.512C87.2795 272.034 83.219 266.29 78.0809 262.684C78.0809 262.684 76.486 262.054 74.935 262.895C73.6116 263.612 73.7814 267.758 69.0704 267.716C64.3596 267.676 63.8102 267.102 62.2703 266.292C61.605 264.465 60.129 264.451 60.129 264.451C60.129 264.451 58.0506 268.418 58.0156 272.4C57.9808 276.385 57.984 283.001 57.984 283.001L99.1583 282.133Z" fill="#484D51"/>
<path d="M95.0021 273.182C93.7185 272.716 92.3591 272.362 89.7527 271.772L88.4626 273.182C88.4626 273.182 86.3653 273.618 84.6857 273.975C83.0064 274.332 85.9457 276.877 85.9457 276.877C85.9457 276.877 90.7695 276.982 93.3911 276.877C96.0128 276.771 98.8325 276.456 98.8325 276.456C99.1589 276.141 99.4445 276.389 98.8327 275.089C98.1101 273.554 96.8261 273.845 95.0021 273.182Z" fill="#EAF4FB"/>
<path d="M81.1224 273.302C79.7942 272.215 76.2774 269.265 75.3546 268.677C69.797 270.779 65.7066 278.979 65.6017 279.505C65.4967 280.03 75.0699 281.286 75.3542 280.241C75.9803 277.943 79.3358 274.915 81.0923 273.33L81.1224 273.302Z" fill="#EA503B"/>
<path d="M70.1513 272.232C71.4502 272.699 72.5239 272.735 73.1663 272.323C74.822 271.244 73.966 269.335 73.5985 268.584C74.2929 269.522 74.982 270.464 75.4985 271.471C76.314 273.046 76.5806 274.724 75.8679 275.731C74.5894 277.547 71.9451 276.454 70.2758 275.55L59.52 268.584L70.1513 272.232Z" fill="#EAF4FB"/>
<path d="M88.9867 271.515C87.7286 270.989 81.3319 265.418 80.9126 264.997C80.6329 265.697 79.8009 267.226 78.7102 267.731C77.3469 268.361 74.4531 263.559 73.7817 264.366C73.2574 264.997 72.1038 266.154 72.5231 266.679C72.9427 267.205 80.2829 272.882 80.9121 273.197C81.5412 273.513 83.6387 273.933 84.2677 274.038C84.897 274.143 87.6235 273.933 88.2527 273.618C88.8818 273.302 90.245 272.041 88.9867 271.515Z" fill="#D2D8DD"/>
<path d="M79.0246 264.038C79.1482 263.749 79.4833 263.615 79.7731 263.738C80.0629 263.861 80.1976 264.196 80.074 264.485C79.9928 264.675 79.8897 264.874 79.7446 265.131L79.3635 265.791C79.3262 265.857 79.2906 265.92 79.2567 265.981L79.1958 266.093L81.4804 265.399C81.9013 265.271 82.2979 265.646 82.2037 266.066L82.1952 266.099L81.6148 268.135L84.6743 267.489C85.156 267.388 85.5263 267.899 85.2926 268.32L85.2758 268.348L84.1076 270.208L87.3596 269.897C87.8798 269.848 88.1818 270.46 87.8419 270.84L87.8183 270.865L85.6161 273.073C85.3938 273.296 85.0327 273.297 84.8094 273.075C84.5954 272.863 84.5857 272.523 84.7808 272.299L84.8074 272.27L85.8938 271.181L83.0639 271.451C82.6044 271.495 82.2906 271.007 82.5088 270.612L82.5262 270.582L83.5949 268.88L80.9256 269.444C80.5171 269.53 80.1617 269.165 80.2502 268.766L80.2589 268.731L80.8115 266.792L78.3522 267.539C77.9278 267.668 77.5296 267.287 77.6307 266.864L77.6394 266.832C77.7731 266.385 77.9637 265.965 78.2514 265.443L78.4002 265.179C78.4887 265.025 78.6955 264.67 78.751 264.571L78.822 264.444C78.9106 264.283 78.9754 264.153 79.0246 264.038Z" fill="white"/>
<path d="M87.5187 271.2C87.2041 270.779 86.9946 270.569 86.6797 270.464L85.2115 271.725L86.1556 272.566C86.645 272.11 87.309 271.62 87.5187 271.2Z" fill="#EA503B"/>
<path d="M59.7516 264.997C60.4694 266.789 62.4944 267.644 63.4768 267.901C64.4593 268.157 64.5069 267.64 62.7576 269.934C61.474 271.618 60.0283 270.464 58.0514 271.938C58.5258 267.907 59.3375 266.673 59.7516 264.997Z" fill="#EA503B"/>
<path d="M57.769 282.322L57.9846 278.491L91.249 279.009L99.5429 278.399L99.7965 281.338C99.8837 282.352 99.1217 283.241 98.1042 283.31L91.207 283.79L58.6661 283.285C58.1475 283.277 57.74 282.839 57.769 282.322Z" fill="#DBE0E3"/>
<path d="M99.3051 278.246C99.6526 278.212 99.9623 278.465 99.9969 278.811C100.032 279.158 99.778 279.467 99.4305 279.502L99.1285 279.531C94.1396 279.998 84.0765 280.278 76.6446 280.066L74.2442 279.999C70.0365 279.885 63.2102 279.719 63.602 279.73L61.867 279.681C59.963 279.623 58.7142 279.567 57.8971 279.503C57.5491 279.475 57.2893 279.171 57.3169 278.824C57.3445 278.477 57.6491 278.218 57.9971 278.245L58.2656 278.265C59.1744 278.327 60.5683 278.382 62.6702 278.442L63.8366 278.473C65.2162 278.506 72.8029 278.693 76.0284 278.786L76.4537 278.799C84.0065 279.026 94.4383 278.73 99.3051 278.246Z" fill="#F7FBFF"/>
<path d="M11.0745 127.056C13.0943 123.261 17.8148 121.819 21.618 123.834C25.4213 125.849 26.8672 130.559 24.8474 134.353C22.2012 139.325 20.1402 147.377 19.3515 155.814L19.328 156.07C18.5809 164.339 19.184 171.782 20.7841 175.675L20.8329 175.792C22.5107 179.749 20.6558 184.314 16.6898 185.988C12.7239 187.662 8.14862 185.811 6.47076 181.854C0.879799 168.669 3.32377 141.617 11.0745 127.056Z" fill="#EBBAAA"/>
<path d="M80.3226 113.973C84.4473 112.738 88.7942 115.073 90.0316 119.188C96.843 141.841 98.2712 173.162 93.6496 185.359C92.1268 189.378 87.6269 191.404 83.5989 189.884C79.6111 188.38 77.5807 183.965 79.0182 179.977L79.0628 179.857C80.3477 176.466 81.0459 167.785 80.5816 157.603C80.0518 145.986 78.1545 133.835 75.0947 123.659C73.8573 119.544 76.1979 115.207 80.3226 113.973Z" fill="#EBBAAA"/>
<path d="M16.1808 112.731C16.1808 107.979 27.0339 103.128 34.6204 100.822L44.525 97.6684C45.9043 97.6268 55.3813 98.0048 56.7477 98.1863L72.1315 103.128C79.4211 104.096 76.5534 111.664 75.8194 118.691L74.555 144.342L72.1315 181.031C72.1467 181.398 65.3487 187.269 64.9664 187.25L35.9902 185.487L20.2902 184.809C19.9231 184.791 19.7329 183.76 19.7633 183.408L21.8723 141.321L16.1808 112.731Z" fill="#EBBAAA"/>
<path d="M87.8819 107.363C85.9432 105.502 79.5578 103.622 76.6075 102.914C71.8156 154.644 58.539 158.218 97.736 151.069C97.736 144.786 90.3054 109.688 87.8819 107.363Z" fill="#E8D6BF"/>
<path d="M97.4471 159.139C98.3041 158.75 98.9167 152.632 99.0643 150.262L72.9795 152.919C73.1896 154.989 73.7365 159.45 74.2448 160.739C74.8801 162.35 79.9532 162.608 85.2568 162.075C90.5604 161.542 96.3757 159.624 97.4471 159.139Z" fill="#D3C9BC"/>
<path d="M99.5268 158.806C100.581 156.957 99.5268 155.38 97.9465 155.38H74.5547C74.7649 157.449 75.3109 160.714 75.8192 162.003C76.4545 163.614 81.1575 162.536 86.4612 162.003C91.7648 161.47 98.9454 159.827 99.5268 158.806Z" fill="#E8D6BF"/>
<path d="M15.2658 107.865C17.0808 106.006 23.0581 104.127 25.82 103.42C24.0774 127.263 27.1382 152.85 26.507 155.275C25.7178 158.306 14.7032 155.646 13.1251 154.434C11.5469 153.221 2.50979 157.964 2.90435 151.7C3.29889 145.436 12.9972 110.189 15.2658 107.865Z" fill="#E8D6BF"/>
<path d="M3.43029 160.067C2.57876 159.714 1.78785 153.667 1.56952 151.321L27.198 152.976C27.057 155.037 26.6606 159.484 26.2031 160.783C25.6312 162.405 20.6708 162.852 15.4602 162.522C10.2496 162.193 4.49468 160.509 3.43029 160.067Z" fill="#D3C9BC"/>
<path d="M1.88071 157.439C0.969079 157.472 0.79654 160.823 0 162.013L25.2007 165.715C25.5783 164.61 26.3045 162.209 26.1858 161.447C26.0375 160.495 21.3511 159.376 16.2294 158.62C11.1076 157.863 3.02026 157.397 1.88071 157.439Z" fill="#E8D6BF"/>
<path d="M47.9474 115.553C46.8937 112.621 47.4205 108.576 47.4205 108.576L42.679 110.093L36.9891 99.4764C30.421 100.589 30.1401 100.993 25.3986 103.015C19.7422 105.428 20.8677 113.531 20.0247 124.552V158.429L18.8657 184.916L34.4602 187.241L51.374 189.336L49.5279 118.89C49.5279 118.89 49.0011 118.485 47.9474 115.553Z" fill="#DED4C9"/>
<path d="M51.9511 115.452C49.2116 113.328 49.6682 111.643 50.1599 109.992L51.1082 109.385L58.0625 108.576L64.5953 100.083C64.5953 100.083 73.9731 101.296 77.1342 102.914C80.2952 104.532 78.9804 146.234 78.9804 146.234L80.8771 186.602L69.4973 187.864L48.5793 191.255C48.5229 186.999 44.7387 177.843 44.8116 172.17C45.1009 149.628 46.3965 123.335 48.5793 122.226C52.1619 120.406 52.5833 115.942 51.9511 115.452Z" fill="#E4DBD0"/>
<path d="M58.9057 102.914C59.6304 100.613 58.9057 98.9706 58.6949 97.9594L64.5955 100.083C64.5955 100.083 66.5975 102.51 65.3331 108.071C63.9479 114.163 57.8218 116.564 56.3768 118.182C55.7446 118.89 55.9553 110.295 51.1084 109.385C53.3211 108.88 57.5359 107.262 58.9057 102.914Z" fill="#E8D6BF"/>
<path d="M42.0577 104.128C40.5716 102.105 41.3422 99.2689 42.0577 97.7576L36.8837 99.4767C36.8837 99.4767 33.9085 104.392 35.5168 109.143C37.5159 115.048 44.6375 117.181 44.5756 116.463C43.9434 109.143 46.4697 109.416 47.5259 108.476C45.7346 108.071 44.0327 106.815 42.0577 104.128Z" fill="#E4DBD0"/>
<path d="M58.2735 115.351C58.8554 115.351 59.3272 114.898 59.3272 114.34C59.3272 113.781 58.8554 113.328 58.2735 113.328C57.6915 113.328 57.2198 113.781 57.2198 114.34C57.2198 114.898 57.6915 115.351 58.2735 115.351Z" fill="#E5EBF9"/>
<path d="M50.0042 126.032C50.8771 126.032 51.5847 125.353 51.5847 124.515C51.5847 123.678 50.8771 122.999 50.0042 122.999C49.1313 122.999 48.4236 123.678 48.4236 124.515C48.4236 125.353 49.1313 126.032 50.0042 126.032Z" fill="#EDF2FF"/>
<path d="M49.3172 139.011C50.1901 139.011 50.8977 138.287 50.8977 137.393C50.8977 136.5 50.1901 135.776 49.3172 135.776C48.4443 135.776 47.7366 136.5 47.7366 137.393C47.7366 138.287 48.4443 139.011 49.3172 139.011Z" fill="#EDF2FF"/>
<path d="M48.4742 153.369C49.3471 153.369 50.0547 152.69 50.0547 151.852C50.0547 151.015 49.3471 150.336 48.4742 150.336C47.6013 150.336 46.8937 151.015 46.8937 151.852C46.8937 152.69 47.6013 153.369 48.4742 153.369Z" fill="#EDF2FF"/>
<path d="M48.4742 167.727C49.3471 167.727 50.0547 167.048 50.0547 166.21C50.0547 165.372 49.3471 164.693 48.4742 164.693C47.6013 164.693 46.8937 165.372 46.8937 166.21C46.8937 167.048 47.6013 167.727 48.4742 167.727Z" fill="#EDF2FF"/>
<path d="M48.4742 180.467C49.3471 180.467 50.0547 179.788 50.0547 178.95C50.0547 178.113 49.3471 177.434 48.4742 177.434C47.6013 177.434 46.8937 178.113 46.8937 178.95C46.8937 179.788 47.6013 180.467 48.4742 180.467Z" fill="#EDF2FF"/>
<rect width="18.71" height="43.5068" rx="9.35502" transform="matrix(0.998636 0.0522163 -0.0524559 0.998623 5.53326 180.081)" fill="#A7A7A7"/>
<rect width="18.71" height="44.8961" rx="9.35502" transform="matrix(0.998636 0.0522163 -0.0524559 0.998623 10.1059 179.136)" fill="#C4C4C4"/>
<path d="M19.7687 182.295C19.8229 181.644 20.3951 181.161 21.0469 181.215C21.6832 181.268 22.16 181.813 22.1319 182.444L22.129 182.49L18.7063 223.591C18.6522 224.241 18.0799 224.725 17.4281 224.671C16.7919 224.618 16.3151 224.073 16.3431 223.442L16.3461 223.395L19.7687 182.295Z" fill="#9B9B9B"/>
<path d="M3.48785 189.651C4.05627 185.114 7.35611 181.184 10.8297 179.609C13.9085 179.609 24.9216 179.585 20.1848 180.908C15.4481 182.232 12.2486 195.126 12.0907 201.348L3.01411 197.685C2.77726 196.898 2.91945 194.188 3.48785 189.651Z" fill="#ADADAD"/>
<path d="M27.6992 102.039C29.116 109.578 28.731 138.653 26.6307 175.733L26.5 178.013L18.0846 177.527L18.2124 175.297C20.2452 139.398 20.6438 110.764 19.4515 103.798L19.4142 103.589L27.6992 102.039Z" fill="#999999"/>
<path fill-rule="evenodd" clip-rule="evenodd" d="M19.3119 160.374L26.4745 160.561C28.3361 160.61 29.8056 162.155 29.7569 164.012L29.6355 168.636C29.5868 170.493 28.0382 171.96 26.1766 171.911L19.014 171.724C17.1525 171.675 15.6829 170.13 15.7317 168.273L15.853 163.649C15.9018 161.792 17.4504 160.325 19.3119 160.374ZM25.4442 167.685L25.5214 164.743L20.0442 164.6L19.9669 167.542L25.4442 167.685Z" fill="#3E3E3E"/>
<rect width="6.66403" height="6.72812" rx="0.5" transform="matrix(0.999659 0.026117 -0.0262371 0.999656 19.0971 179.136)" fill="#725037"/>
<rect width="8.85092" height="6.72812" rx="0.5" transform="matrix(0.999659 0.026117 -0.0262371 0.999656 18.2541 173.88)" fill="#8D5E3B"/>
<mask id="mask0_3_218" style="mask-type:luminance" maskUnits="userSpaceOnUse" x="17" y="162" width="11" height="8">
<rect width="9.69387" height="7.14863" rx="1.5" transform="matrix(0.999659 0.026117 -0.0262371 0.999656 17.9928 162.443)" fill="white"/>
</mask>
<g mask="url(#mask0_3_218)">
</g>
<path d="M77.9321 71.2154C84.8299 71.2154 90.4218 65.8495 90.4218 59.2303C90.4218 52.6111 84.8299 47.2452 77.9321 47.2452C71.0343 47.2452 65.4426 52.6111 65.4426 59.2303C65.4426 65.8495 71.0343 71.2154 77.9321 71.2154Z" fill="#EBBAAA"/>
<path d="M25.0045 71.2154C18.1067 71.2154 12.515 65.8495 12.515 59.2303C12.515 52.6111 18.1067 47.2452 25.0045 47.2452C31.9024 47.2452 37.4943 52.6111 37.4943 59.2303C37.4943 65.8495 31.9024 71.2154 25.0045 71.2154Z" fill="#EBBAAA"/>
<path d="M18.2336 42.0063C18.2336 24.3255 32.5997 9.99217 50.3212 9.99217C68.2449 9.99217 82.6933 24.6415 82.4048 42.5217L81.9253 72.2305C81.664 88.4143 68.4401 101.397 52.217 101.397C34.6677 101.397 20.1556 87.7586 19.1079 70.2808L18.2336 55.6947V42.0063Z" fill="#F4D4C9"/>
<path d="M57.714 78.5055C58.5434 78.1669 59.4908 78.5634 59.8301 79.3909C60.1694 80.2184 59.7721 81.1636 58.9427 81.5022C53.6858 83.6478 48.8135 83.7071 44.6854 81.419C43.9021 80.9848 43.6198 79.9992 44.055 79.2176C44.4902 78.4361 45.4781 78.1545 46.2614 78.5887C49.4437 80.3526 53.3036 80.3056 57.714 78.5055Z" fill="#C99584"/>
<path d="M17.026 39.422C16.9697 38.2757 18.0702 37.3224 19.4474 37.3224C20.8764 37.3224 20.9523 49.1744 20.8172 50.3582L19.5779 59.5837C19.5397 59.919 19.2021 60.1736 18.7993 60.1736C18.3785 60.1736 18.0342 59.8984 18.0162 59.55L17.026 51.9351V39.422Z" fill="#575757"/>
<path d="M84.8048 37.5946C84.9216 36.4571 83.889 35.4552 82.5329 35.3882C81.126 35.3186 79.9701 36.2813 80.0399 37.4655L81.2149 57.5251C81.2347 57.8605 81.5534 58.1304 81.95 58.15C82.3643 58.1704 82.7181 57.9135 82.7544 57.5676L84.8048 37.5946Z" fill="#575757"/>
<path d="M63.858 55.8006C65.2332 55.8006 66.3519 56.8957 66.386 58.2595L66.3868 58.3236V60.8073C66.3868 62.2008 65.2546 63.3304 63.858 63.3304C62.4828 63.3304 61.3641 62.2353 61.33 60.8715L61.3292 60.8073V58.3236C61.3292 56.9302 62.4614 55.8006 63.858 55.8006Z" fill="black"/>
<path d="M37.516 55.1698C38.8911 55.1698 40.0099 56.2649 40.044 57.6287L40.0448 57.6928V60.1765C40.0448 61.57 38.9126 62.6996 37.516 62.6996C36.1408 62.6996 35.022 61.6045 34.9879 60.2407L34.9871 60.1765V57.6928C34.9871 56.2994 36.1193 55.1698 37.516 55.1698Z" fill="black"/>
<path d="M69.8268 44.1967C70.9884 44.124 71.9891 45.0046 72.0619 46.1635C72.1335 47.3028 71.2818 48.2869 70.1494 48.389L70.0906 48.3935L58.0388 49.1475C56.8772 49.2201 55.8765 48.3396 55.8036 47.1806C55.732 46.0414 56.5838 45.0572 57.7162 44.9551L57.775 44.9506L69.8268 44.1967Z" fill="#393939"/>
<path d="M31.227 44.83L43.2904 45.3084C44.4534 45.3545 45.3586 46.3324 45.3124 47.4927C45.267 48.6333 44.3189 49.5255 43.182 49.5116L43.123 49.5101L31.0596 49.0318C29.8967 48.9857 28.9914 48.0077 29.0376 46.8474C29.083 45.7068 30.0311 44.8146 31.168 44.8285L31.227 44.83Z" fill="#393939"/>
<path d="M49.1734 60.0941L52.4 61.6474C50.98 64.5836 50.1712 67.4075 50.2168 69.3575C50.2561 71.0434 50.7857 71.6797 52.2467 71.6984L52.3137 71.6988V75.2731C48.7089 75.2731 46.7177 72.9726 46.6352 69.4408C46.5752 66.8707 47.4977 63.6039 49.0931 60.2613L49.1734 60.0941Z" fill="#EBBAAA"/>
<path d="M19.0681 23.6422C21.5126 18.627 27.7435 16.4295 30.3425 15.5532L39.0881 19.2944C33.8196 17.0407 29.4785 21.1751 26.0224 27.08C22.5663 32.985 21.0631 45.0668 20.8172 50.3583C20.8172 50.3583 19.8057 51.5996 19.1735 51.5491C18.5413 51.4985 17.8981 58.9022 17.0239 51.9238C16.1497 44.9453 16.6236 28.6574 19.0681 23.6422Z" fill="#575757"/>
<path d="M85.7186 32.4859C82.468 11.7026 69.2554 9.74398 62.7538 7.67651C62.7538 7.67651 68.9939 24.8879 75.076 29.3001C81.158 33.7123 81.158 52.0401 81.158 52.0401L81.1711 52.0214C85.7218 45.5868 87.3971 43.2178 85.7186 32.4859Z" fill="#575757"/>
<path d="M49.8989 30.2183C56.811 30.2183 65.5987 25.1963 67.4954 22.2303L53.376 15.4559L31.354 16.6692L28.4037 35.2738C34.5151 28.7015 42.9867 30.2183 49.8989 30.2183Z" fill="#181818"/>
<path d="M44.6304 0.949669C66.7578 -2.89248 76.6624 5.88945 79.4022 10.0945C82.1422 14.2995 84.4599 22.3943 79.4022 25.1276C75.7861 27.0817 61.4891 24.561 51.7953 26.1789C42.1014 27.7966 41.2586 28.7019 32.3023 30.8745C25.862 32.4366 23.3462 31.7506 19.7634 30.8745C19.7634 23.3108 19.8898 19.6298 21.2387 15.6662C22.9246 10.7117 32.8368 2.9975 44.6304 0.949669Z" fill="#181818"/>
<path d="M54.2959 62.2882L53.9028 56.57C53.9028 56.57 56.0507 52.6767 64.6807 51.6608C73.3108 50.6446 77.2558 55.1697 77.2558 55.1697L76.4489 62.7516C76.0078 66.8968 72.4468 70.0069 68.2704 69.8948L62.0697 69.7285C57.9439 69.6177 54.5782 66.3964 54.2959 62.2882Z" fill="white" fill-opacity="0.22"/>
<path d="M46.7302 61.8229L47.1591 56.5965C47.1591 56.5965 44.5767 52.573 36.0992 51.6435C27.6215 50.714 23.9782 55.0196 23.9782 55.0196L24.8197 62.295C25.2983 66.4325 28.8823 69.5092 33.0545 69.3639L39.0282 69.1557C43.088 69.0142 46.3985 65.8623 46.7302 61.8229Z" fill="white" fill-opacity="0.22"/>
<path fill-rule="evenodd" clip-rule="evenodd" d="M56.6475 53.6308C58.6636 52.4744 61.2983 51.6355 64.6314 51.2432C68.8175 50.7503 72.2674 51.4686 75.0006 52.9727C75.7526 53.3865 76.3921 53.8309 76.9215 54.2769C77.2438 54.5485 77.4604 54.7637 77.5738 54.8937L77.6943 55.0319L76.868 62.796C76.4038 67.1593 72.6554 70.4331 68.2591 70.3151L62.0584 70.1488C57.7155 70.0322 54.1726 66.6414 53.8754 62.317L53.4739 56.4755L53.5336 56.3672C53.6393 56.1757 53.8635 55.865 54.2324 55.4763C54.833 54.8434 55.6297 54.2145 56.6475 53.6308ZM76.3776 54.9192C75.8895 54.5079 75.2954 54.0951 74.5935 53.7088C72.0114 52.2878 68.7377 51.6062 64.7301 52.0781C61.5074 52.4575 58.9821 53.2615 57.0676 54.3596C56.1214 54.9023 55.3892 55.4802 54.8445 56.0542C54.6572 56.2516 54.507 56.4332 54.3909 56.5942L54.3698 56.6236L54.3325 56.6771L54.7163 62.2592C54.9812 66.1122 58.1089 69.1417 61.964 69.3038L62.081 69.3078L68.2818 69.4741C72.2384 69.5803 75.6119 66.6339 76.0298 62.7069L76.8159 55.3184L76.7559 55.2592C76.6665 55.1727 76.5641 55.079 76.4485 54.9795L76.3776 54.9192Z" fill="black"/>
<path d="M64.282 51.1812C67.0692 50.8216 69.6867 51.0229 72.1045 51.6658C73.8993 52.143 75.4433 52.8223 76.7134 53.5853C77.5729 54.1019 78.0462 55.0494 78.0134 56.0605L78.0103 56.1312L77.7888 60.1041L75.8951 59.999L76.1166 56.0262C76.1367 55.6643 75.9885 55.3588 75.7348 55.2063C74.6108 54.531 73.2291 53.9231 71.6161 53.4942C69.4303 52.913 67.0603 52.7308 64.5253 53.0579C59.9951 53.6425 56.8627 55.0474 54.9063 56.6976C54.7492 56.8301 54.6647 57.0542 54.6825 57.3284L54.6871 57.3804L55.2419 62.4481L53.3565 62.6536L52.8016 57.5859C52.7037 56.6917 53.0064 55.8224 53.6817 55.2527C55.9133 53.3703 59.3851 51.8132 64.282 51.1812Z" fill="black"/>
<path fill-rule="evenodd" clip-rule="evenodd" d="M24.2493 54.6399C24.7514 54.2107 25.3622 53.7832 26.0852 53.3854C28.6867 51.9537 32.0192 51.2636 36.1204 51.7133C39.4619 52.0797 42.1568 52.94 44.2696 54.1479C45.2858 54.7289 46.1022 55.3539 46.7372 55.982C47.1254 56.366 47.3697 56.6714 47.4891 56.8574L47.5659 56.977L47.1254 62.345C46.7762 66.5971 43.2915 69.9148 39.018 70.0637L33.0443 70.2719C28.6526 70.4248 24.8799 67.1863 24.3762 62.8309L23.5138 55.3749L23.6525 55.2114C23.7493 55.1005 23.9109 54.937 24.1392 54.7355L24.2493 54.6399ZM43.8506 54.8775C41.8397 53.7278 39.2562 52.9031 36.0284 52.5492C32.1021 52.1187 28.9437 52.7728 26.4924 54.1217C25.8212 54.4911 25.2574 54.8857 24.7979 55.2785C24.6389 55.4144 24.5047 55.5398 24.3945 55.6515L25.2136 62.7344C25.6625 66.615 28.9948 69.5105 32.8966 69.4345L33.015 69.4313L38.9887 69.2232C42.8348 69.0891 45.9711 66.1031 46.2854 62.2763L46.7014 57.2031L46.6865 57.1835L46.6408 57.1255C46.5102 56.9622 46.3453 56.7785 46.1438 56.5791C45.5602 56.0019 44.8022 55.4215 43.8506 54.8775Z" fill="black"/>
<path d="M28.9196 51.9525C31.2842 51.3063 33.847 51.0902 36.5796 51.4206C41.3738 52.0003 44.7899 53.4933 47.0027 55.3194C47.6707 55.871 47.9829 56.7141 47.9104 57.5891L47.903 57.6664L47.3395 62.8628L45.4538 62.6593L46.0174 57.4627C46.0499 57.1627 45.9629 56.9171 45.7937 56.7774C43.8574 55.1795 40.7804 53.8346 36.3514 53.2991C33.8704 52.9991 31.5543 53.1944 29.4207 53.7776C27.8437 54.2086 26.4932 54.8134 25.3939 55.4837C25.154 55.6299 25.0109 55.914 25.0178 56.2531L25.0199 56.3044L25.2673 60.1817L23.3745 60.3019L23.1271 56.4246C23.061 55.3869 23.5284 54.4034 24.4049 53.8691C25.6494 53.1103 27.1614 52.433 28.9196 51.9525Z" fill="black"/>
<path d="M46.0795 57.3663C48.8188 56.0648 51.4603 55.9372 54.0313 57.3328L54.1328 57.3886L53.4119 58.6727C51.3001 57.4926 49.154 57.5646 46.8215 58.6445L46.7137 58.6951L46.0795 57.3663Z" fill="black"/>
</svg>
